<svg width="32" height="32" viewBox="0 0 32 32" fill="none" xmlns="http://www.w3.org/2000/svg">
<path d="M27.49 2H5.49001C5.09203 2.01292 4.71453 2.17949 4.43672 2.46476C4.15891 2.75003 4.00239 3.13182 4.00001 3.53V5.53C3.99855 5.86561 4.10748 6.19239 4.31001 6.46L12.14 16.82C12.699 17.5677 13.0007 18.4764 13 19.41V24.33C13.0006 24.8691 13.1232 25.4011 13.3588 25.886C13.5943 26.371 13.9366 26.7963 14.36 27.13L17.58 29.63C17.846 29.8368 18.1731 29.9493 18.51 29.95C18.743 29.9517 18.9729 29.8968 19.18 29.79C19.4318 29.662 19.6424 29.4655 19.7874 29.2232C19.9325 28.9808 20.0062 28.7024 20 28.42V19.42C19.9971 18.483 20.299 17.5705 20.86 16.82L28.69 6.47C28.8926 6.20239 29.0015 5.87561 29 5.54V3.54C29.0027 3.33955 28.9656 3.14056 28.891 2.95449C28.8165 2.76841 28.7058 2.59893 28.5655 2.45579C28.4251 2.31265 28.2578 2.19869 28.0733 2.12047C27.8887 2.04224 27.6905 2.0013 27.49 2ZM27 5.39L19.27 15.61C18.4449 16.7126 17.9993 18.0529 18 19.43V27.43L15.55 25.54C15.3754 25.3908 15.2357 25.2051 15.1407 24.9961C15.0456 24.787 14.9976 24.5596 15 24.33V19.41C15 18.0422 14.5542 16.7116 13.73 15.62L6.00001 5.39V4H27V5.39Z" fill="#231F20"/>
</svg>
