<?xml version="1.0" encoding="UTF-8"?><svg id="_レイヤー_1" xmlns="http://www.w3.org/2000/svg" viewBox="0 0 568.94 86.72"><defs><style>.cls-1{fill:#1a1a1a;}</style></defs><rect class="cls-1" x="13.06" y="5.34" width="78.38" height="78.38" rx="2.31" ry="2.31"/><rect class="cls-1" x="98.94" y="5.34" width="35.44" height="35.44" rx="2.06" ry="2.06"/><rect class="cls-1" x="98.94" y="48.14" width="35.44" height="35.44" rx="1.88" ry="1.88"/><path class="cls-1" d="m552.41,21.9c0-4.79,3.6-8.21,7.99-8.21s7.96,3.42,7.96,8.21-3.56,8.17-7.96,8.17-7.99-3.38-7.99-8.17Zm13.89,0c0-3.82-2.48-6.33-5.9-6.33s-5.94,2.52-5.94,6.33,2.48,6.33,5.94,6.33,5.9-2.52,5.9-6.33Zm-9.14-4.14h3.53c1.8,0,3.28.83,3.28,2.66,0,.97-.54,1.84-1.48,2.23l1.73,3.24h-2.27l-1.3-2.59h-1.3v2.59h-2.2v-8.13Zm3.06,4.03c.94,0,1.4-.5,1.4-1.19s-.4-1.15-1.37-1.15h-.9v2.34h.86Z"/><g><path class="cls-1" d="m166.43,66.57c-2.64-1.08-4.76-2.69-6.34-4.81-1.58-2.12-2.42-4.68-2.5-7.67h11.83c.17,1.69.76,2.98,1.76,3.87,1,.89,2.3,1.33,3.9,1.33s2.95-.38,3.9-1.14c.95-.76,1.43-1.81,1.43-3.15,0-1.13-.38-2.06-1.14-2.79-.76-.74-1.69-1.34-2.79-1.82-1.1-.48-2.68-1.02-4.71-1.62-2.95-.91-5.35-1.82-7.22-2.73s-3.47-2.25-4.81-4.03c-1.34-1.78-2.01-4.09-2.01-6.96,0-4.25,1.54-7.57,4.61-9.98,3.08-2.4,7.08-3.61,12.03-3.61s9.08,1.2,12.16,3.61c3.08,2.41,4.72,5.75,4.94,10.04h-12.02c-.09-1.47-.63-2.63-1.62-3.48-1-.84-2.28-1.27-3.83-1.27-1.34,0-2.43.36-3.25,1.07-.82.71-1.24,1.75-1.24,3.09,0,1.47.69,2.62,2.08,3.45,1.39.82,3.55,1.71,6.5,2.66,2.95,1,5.34,1.95,7.18,2.86,1.84.91,3.43,2.23,4.78,3.96,1.34,1.73,2.01,3.96,2.01,6.7s-.66,4.96-1.98,7.08c-1.32,2.12-3.24,3.81-5.75,5.07-2.51,1.26-5.48,1.88-8.91,1.88s-6.33-.54-8.97-1.62Z"/><path class="cls-1" d="m199.48,25.98c-1.24-1.15-1.85-2.57-1.85-4.26s.62-3.17,1.85-4.32c1.23-1.15,2.83-1.72,4.78-1.72s3.48.58,4.71,1.72c1.24,1.15,1.85,2.59,1.85,4.32s-.62,3.11-1.85,4.26c-1.23,1.15-2.81,1.72-4.71,1.72s-3.54-.57-4.78-1.72Zm10.3,5.49v36.27h-11.11V31.47h11.11Z"/><path class="cls-1" d="m274.68,35.18c2.67,2.73,4,6.52,4,11.38v21.19h-11.05v-19.7c0-2.34-.62-4.15-1.85-5.43-1.23-1.28-2.94-1.92-5.1-1.92s-3.87.64-5.1,1.92c-1.23,1.28-1.85,3.09-1.85,5.43v19.7h-11.05v-19.7c0-2.34-.62-4.15-1.85-5.43-1.23-1.28-2.94-1.92-5.1-1.92s-3.87.64-5.1,1.92c-1.23,1.28-1.85,3.09-1.85,5.43v19.7h-11.11V31.47h11.11v4.55c1.13-1.52,2.6-2.72,4.42-3.61,1.82-.89,3.88-1.33,6.17-1.33,2.73,0,5.17.58,7.31,1.75,2.14,1.17,3.82,2.84,5.04,5,1.26-1.99,2.97-3.62,5.13-4.88,2.17-1.26,4.53-1.88,7.08-1.88,4.51,0,8.09,1.37,10.76,4.09Z"/><path class="cls-1" d="m301.89,32.51c1.91-1.04,4.14-1.56,6.7-1.56,2.99,0,5.7.76,8.12,2.28,2.43,1.52,4.34,3.68,5.75,6.5,1.41,2.82,2.11,6.09,2.11,9.81s-.71,7.01-2.11,9.85c-1.41,2.84-3.33,5.03-5.75,6.57-2.43,1.54-5.13,2.31-8.12,2.31-2.51,0-4.74-.52-6.66-1.56-1.93-1.04-3.43-2.38-4.52-4.03v22.36h-11.11V31.47h11.11v5.13c1.08-1.69,2.58-3.06,4.49-4.1Zm9.07,10.5c-1.54-1.58-3.43-2.37-5.69-2.37s-4.08.8-5.62,2.41c-1.54,1.6-2.31,3.79-2.31,6.57s.77,4.96,2.31,6.56c1.54,1.6,3.41,2.41,5.62,2.41s4.1-.81,5.66-2.44,2.34-3.82,2.34-6.6-.77-4.95-2.31-6.53Z"/><path class="cls-1" d="m341.34,19.64v48.1h-11.11V19.64h11.11Z"/><path class="cls-1" d="m383.2,52.27h-25.16c.17,2.25.9,3.98,2.18,5.17,1.28,1.19,2.85,1.79,4.71,1.79,2.77,0,4.7-1.17,5.79-3.51h11.83c-.61,2.38-1.7,4.53-3.28,6.44-1.58,1.91-3.57,3.4-5.95,4.48-2.38,1.08-5.05,1.62-7.99,1.62-3.55,0-6.72-.76-9.49-2.27-2.77-1.52-4.94-3.68-6.5-6.5-1.56-2.82-2.34-6.11-2.34-9.88s.77-7.06,2.31-9.88c1.54-2.82,3.69-4.98,6.47-6.5,2.77-1.52,5.96-2.28,9.56-2.28s6.63.74,9.36,2.21c2.73,1.47,4.86,3.58,6.4,6.3,1.54,2.73,2.31,5.92,2.31,9.56,0,1.04-.06,2.12-.19,3.25Zm-11.18-6.17c0-1.91-.65-3.42-1.95-4.55-1.3-1.13-2.92-1.69-4.88-1.69s-3.43.54-4.71,1.62c-1.28,1.08-2.07,2.62-2.37,4.62h13.91Z"/><path class="cls-1" d="m422,44.05c-1.21,2.19-3.08,3.96-5.59,5.3-2.51,1.34-5.63,2.01-9.36,2.01h-6.89v16.38h-11.11V22.11h18c3.64,0,6.72.63,9.23,1.88,2.51,1.26,4.4,2.99,5.66,5.2s1.88,4.75,1.88,7.6c0,2.64-.61,5.06-1.82,7.25Zm-11.05-3.02c1.04-1,1.56-2.41,1.56-4.23s-.52-3.23-1.56-4.22c-1.04-1-2.62-1.5-4.74-1.5h-6.05v11.44h6.05c2.12,0,3.7-.5,4.74-1.5Z"/><path class="cls-1" d="m429.32,39.73c1.41-2.82,3.33-4.98,5.75-6.5s5.14-2.28,8.12-2.28c2.56,0,4.8.52,6.73,1.56,1.93,1.04,3.41,2.41,4.45,4.1v-5.13h11.12v36.27h-11.12v-5.13c-1.08,1.69-2.59,3.05-4.52,4.09-1.93,1.04-4.17,1.56-6.73,1.56-2.95,0-5.63-.77-8.06-2.31s-4.34-3.73-5.75-6.57c-1.41-2.84-2.11-6.12-2.11-9.85s.7-7,2.11-9.81Zm22.75,3.31c-1.54-1.6-3.41-2.41-5.62-2.41s-4.08.79-5.62,2.37c-1.54,1.58-2.31,3.76-2.31,6.53s.77,4.97,2.31,6.6c1.54,1.62,3.41,2.44,5.62,2.44s4.08-.8,5.62-2.41c1.54-1.6,2.31-3.79,2.31-6.56s-.77-4.96-2.31-6.57Z"/><path class="cls-1" d="m493.86,32.51c1.93,1.04,3.41,2.41,4.45,4.1v-5.13h11.12v36.2c0,3.34-.66,6.36-1.98,9.07-1.32,2.71-3.34,4.86-6.04,6.47-2.71,1.6-6.08,2.41-10.11,2.41-5.37,0-9.73-1.27-13.06-3.8-3.34-2.54-5.24-5.97-5.72-10.3h10.99c.35,1.39,1.17,2.48,2.47,3.28,1.3.8,2.9,1.2,4.81,1.2,2.3,0,4.13-.66,5.49-1.98,1.37-1.32,2.05-3.43,2.05-6.34v-5.13c-1.08,1.69-2.58,3.07-4.49,4.13-1.91,1.06-4.14,1.59-6.7,1.59-2.99,0-5.7-.77-8.12-2.31s-4.34-3.73-5.75-6.57c-1.41-2.84-2.11-6.12-2.11-9.85s.7-7,2.11-9.81c1.41-2.82,3.33-4.98,5.75-6.5s5.14-2.28,8.12-2.28c2.56,0,4.8.52,6.73,1.56Zm2.15,10.53c-1.54-1.6-3.41-2.41-5.62-2.41s-4.08.79-5.62,2.37c-1.54,1.58-2.31,3.76-2.31,6.53s.77,4.97,2.31,6.6c1.54,1.62,3.41,2.44,5.62,2.44s4.08-.8,5.62-2.41c1.54-1.6,2.31-3.79,2.31-6.56s-.77-4.96-2.31-6.57Z"/><path class="cls-1" d="m551.29,52.27h-25.16c.17,2.25.9,3.98,2.18,5.17,1.28,1.19,2.85,1.79,4.71,1.79,2.77,0,4.7-1.17,5.79-3.51h11.83c-.61,2.38-1.7,4.53-3.28,6.44-1.58,1.91-3.57,3.4-5.95,4.48-2.38,1.08-5.05,1.62-7.99,1.62-3.55,0-6.72-.76-9.49-2.27-2.77-1.52-4.94-3.68-6.5-6.5-1.56-2.82-2.34-6.11-2.34-9.88s.77-7.06,2.31-9.88c1.54-2.82,3.69-4.98,6.47-6.5,2.77-1.52,5.96-2.28,9.56-2.28s6.63.74,9.36,2.21c2.73,1.47,4.86,3.58,6.4,6.3,1.54,2.73,2.31,5.92,2.31,9.56,0,1.04-.06,2.12-.19,3.25Zm-11.18-6.17c0-1.91-.65-3.42-1.95-4.55-1.3-1.13-2.92-1.69-4.88-1.69s-3.43.54-4.71,1.62c-1.28,1.08-2.07,2.62-2.37,4.62h13.91Z"/></g></svg>